<?xml version="1.0" encoding="utf-8"?>
<!-- Generator: Adobe Illustrator 19.0.0, SVG Export Plug-In . SVG Version: 6.00 Build 0)  -->
<svg version="1.1" xmlns="http://www.w3.org/2000/svg" xmlns:xlink="http://www.w3.org/1999/xlink" x="0px" y="0px"
	 viewBox="0 0 492 492" style="enable-background:new 0 0 492 492;" xml:space="preserve">
<style type="text/css">
	.st0{fill-rule:evenodd;clip-rule:evenodd;fill:#F2BB5A;}
	.st1{fill-rule:evenodd;clip-rule:evenodd;fill:#071828;}
	.st2{fill-rule:evenodd;clip-rule:evenodd;fill:#A7AAAA;}
	.st3{fill-rule:evenodd;clip-rule:evenodd;fill:#3B3C3C;}
	.st4{fill-rule:evenodd;clip-rule:evenodd;fill:#24939B;}
	.st5{fill-rule:evenodd;clip-rule:evenodd;fill:#28A3AC;}
</style>
<g id="Layer_1">
	<g>
		<path class="st0" d="M430.1,185.7V124c0-5-2-9.5-5.3-12.7c-3.3-3.3-7.8-5.3-12.7-5.3c-86.2,0-246.4,0-332.6,0c-5,0-9.5,2-12.7,5.3
			c-3.3,3.3-5.3,7.8-5.3,12.7v61.7h4.4c0.4-0.1,0.9-0.2,1.4-0.2c1.8,0,3.7,0,5.8,0c32.9,0,95.1,0.1,158.1,0.2H430.1z"/>
		<path class="st1" d="M61.4,182v220.2c0,5,2,9.5,5.3,12.7c3.3,3.3,7.8,5.3,12.7,5.3h332.6c5,0,9.5-2,12.7-5.3
			c3.3-3.3,5.3-7.8,5.3-12.7V182H426c-0.5,0.2-1.1,0.2-1.6,0.2c-0.1,0-2.1,0-5.8,0c-22.6,0-107.9-0.1-189.4-0.2H61.4z"/>
		<rect x="178.9" y="229.3" class="st2" width="51.2" height="26.5"/>
		<rect x="261.4" y="229.3" class="st2" width="51.2" height="26.5"/>
		<rect x="343.9" y="229.3" class="st3" width="51.2" height="26.5"/>
		<rect x="96.4" y="287.8" class="st2" width="51.2" height="26.5"/>
		<rect x="178.9" y="287.8" class="st2" width="51.2" height="26.5"/>
		<rect x="261.4" y="287.8" class="st2" width="51.2" height="26.5"/>
		<rect x="343.9" y="287.8" class="st2" width="51.2" height="26.5"/>
		<rect x="96.4" y="346.3" class="st2" width="51.2" height="26.5"/>
		<rect x="178.9" y="346.3" class="st2" width="51.2" height="26.5"/>
		<rect x="261.4" y="346.3" class="st2" width="51.2" height="26.5"/>
		<rect x="343.9" y="346.3" class="st2" width="51.2" height="26.5"/>
		<rect x="61.4" y="178.9" class="st4" width="368.6" height="12.6"/>
		<circle class="st5" cx="351.4" cy="130.1" r="18"/>
		<circle class="st5" cx="140.1" cy="130.1" r="18"/>
		<path class="st3" d="M140.1,72.3L140.1,72.3c7,0,12.8,5.7,12.8,12.8v41.8c0,7-5.7,12.8-12.8,12.8h0c-7,0-12.8-5.7-12.8-12.8V85.1
			C127.3,78.1,133.1,72.3,140.1,72.3z"/>
		<path class="st3" d="M351.4,72.3L351.4,72.3c7,0,12.8,5.7,12.8,12.8v41.8c0,7-5.7,12.8-12.8,12.8h0c-7,0-12.8-5.7-12.8-12.8V85.1
			C338.7,78.1,344.4,72.3,351.4,72.3z"/>
	</g>
</g>
<g id="Master_Layer_3">
</g>
</svg>
